# AST/ASF file generated using VICON BodyLanguage
# -----------------------------------------------
:version 1.10
:name VICON
:units
  mass 1.0
  length 0.45
  angle deg
:documentation
   .ast/.asf automatically generated from VICON data using
   VICON BodyBuilder and BodyLanguage model FoxedUp or BRILLIANT.MOD
:root
   order TX TY TZ RX RY RZ
   axis XYZ
   position 0 0 0  
   orientation 0 0 0 
:bonedata
  begin
     id 1 
     name lhipjoint
     direction 0.589753 -0.68606 0.426044 
     length 2.54082 
     axis 0 0 0  XYZ
  end
  begin
     id 2 
     name lfemur
     direction 0.34202 -0.939693 0  
     length 7.04539  
     axis 0 0 20  XYZ
    dof rx ry rz
    limits (-160.0 20.0)
           (-70.0 70.0)
           (-60.0 70.0)
  end
  begin
     id 3 
     name ltibia
     direction 0.34202 -0.939693 0   
     length 7.83772   
     axis 0 0 20   XYZ
    dof rx
    limits (-10.0 170.0)
  end
  begin
     id 4 
     name lfoot
     direction 0.0596604 -0.163915 0.984669   
     length 2.39542   
     axis -90 7.62852e-016 20   XYZ
    dof rx rz
    limits (-45.0 90.0)
           (-70.0 20.0)
  end
  begin
     id 5 
     name ltoes
     direction 1.53514e-011 -4.21954e-011 1   
     length 1.2047   
     axis -90 7.62852e-016 20   XYZ
    dof rx
    limits (-90.0 20.0)
  end
  begin
     id 6 
     name rhipjoint
     direction -0.580585 -0.69168 0.429534   
     length 2.52018  
     axis 0 0 0  XYZ 
  end
  begin
     id 7 
     name rfemur
     direction -0.34202 -0.939693 0   
     length 7.0101   
     axis 0 0 -20   XYZ
    dof rx ry rz
    limits (-160.0 20.0)
           (-70.0 70.0)
           (-70.0 60.0)
  end
  begin
     id 8 
     name rtibia
     direction -0.34202 -0.939693 0   
     length 7.70628   
     axis 0 0 -20   XYZ
    dof rx
    limits (-10.0 170.0)
 end
 begin
     id 9 
     name rfoot
     direction -0.0696237 -0.19129 0.979061   
     length 2.52466  
     axis -90 -7.62852e-016 -20   XYZ
    dof rx rz
    limits (-45.0 90.0)
           (-20.0 70.0)
  end
  begin
     id 10 
     name rtoes
     direction -1.53519e-011 -4.21793e-011 1   
     length 1.266   
     axis -90 -7.62852e-016 -20   XYZ
    dof rx
    limits (-90.0 20.0)
  end
  begin
     id 11 
     name lowerback
     direction 0.00381965 0.995707 -0.0924856   
     length 2.20825   
     axis 0 0 0   XYZ
    dof rx ry rz
    limits (-20.0 45.0)
           (-30.0 30.0)
           (-30.0 30.0)
  end
  begin
     id 12 
     name upperback
     direction -0.0139043 0.999634 -0.0231929   
     length 2.21517   
     axis 0 0 0   XYZ
    dof rx ry rz
    limits (-20.0 45.0)
           (-30.0 30.0)
           (-30.0 30.0)
  end
  begin
     id 13 
     name thorax
     direction -0.0143933 0.999691 0.0202892   
     length 2.22911   
     axis 0 0 0   XYZ
    dof rx ry rz
    limits (-20.0 45.0)
           (-30.0 30.0)
           (-30.0 30.0)
  end
  begin
     id 14 
     name lowerneck
     direction -0.0251153 0.981819 0.188153   
     length 1.61782   
     axis 0 0 0   XYZ
    dof rx ry rz
    limits (-20.0 45.0)
           (-30.0 30.0)
           (-30.0 30.0)
  end
  begin
     id 15 
     name upperneck
     direction 0.0563891 0.969357 -0.239095   
     length 1.64526   
     axis 0 0 0   XYZ
    dof rx ry rz
    limits (-20.0 45.0)
           (-30.0 30.0)
           (-30.0 30.0)
  end
  begin
     id 16
     name head
     direction 0.0208328 0.99459 -0.101773  
     length 1.67436  
     axis 0 0 0   XYZ
    dof rx ry rz
    limits (-20.0 45.0)
           (-30.0 30.0)
           (-30.0 30.0)
  end
  begin
     id 17 
     name lclavicle
     direction 0.917689 0.397224 0.00772059  
     length 3.31102  
     axis 0 0 0   XYZ
    dof ry rz
    limits (-20.0 10.0)
           (0.0 20.0)
  end
  begin
     id 18 
     name lhumerus
     direction 1 -4.4896e-011 2.32308e-027   
     length 5.25537   
     axis 180 -30 -90   XYZ
    dof rx ry rz
    limits (-60.0 90.0)
           (-90.0 90.0)
           (-90.0 90.0)
  end
  begin
     id 19
     name lradius
     direction 1 -4.49005e-011 -2.04271e-027   
     length 3.38855   
     axis 180 -30 -90   XYZ
    dof rx
    limits (-10.0 170.0)
  end
  begin
     id 20
     name lwrist
     direction 1 -4.48892e-011 2.56952e-028   
     length 1.69428   
     axis -5.12785e-016 90 90   XYZ
    dof ry
    limits (-180.0 0.0)
 end
  begin
     id 21 
     name lhand
     direction 1 -4.48966e-011 5.13905e-028   
     length 0.614516   
     axis -3.27915e-016 90 90   XYZ
    dof rx rz
    limits (-90.0 90.0)
           (-45.0 45.0)
  end
  begin
     id 22 
     name lfingers
     direction 1 -4.48979e-011 1.02781e-027   
     length 0.495439   
     axis -6.5583e-016 90 90   XYZ
    dof rx
    limits (0.0 90.0)
  end
  begin
     id 23
     name lthumb
     direction 0.707107 -6.35001e-011 0.707107   
     length 0.711354   
     axis -90 45 2.85299e-015   XYZ
    dof rx rz
    limits (-45.0 45.0)
           (-45.0 45.0)
  end
  begin
     id 24 
     name rclavicle
     direction -0.938556 0.342765 -0.0403177   
     length 3.27019  
     axis 0 0 0   XYZ 
    dof ry rz
    limits (-10.0 20.0)
           (-20.0 0.0)
  end
  begin
     id 25 
     name rhumerus
     direction -1 -4.48966e-011 2.52291e-027  
     length 5.38183   
     axis 180 30 90   XYZ
    dof rx ry rz
    limits (-90.0 60.0)
           (-90.0 90.0)
           (-90.0 90.0)
  end
  begin
     id 26 
     name rradius
     direction -1 -4.4896e-011 1.5797e-027   
     length 3.16988   
     axis 180 30 90   XYZ
    dof rx
    limits (-10.0 170.0)
  end
  begin
     id 27 
     name rwrist
     direction -1 -4.48947e-011 2.56952e-028   
     length 1.58494   
     axis -5.12785e-016 -90 -90   XYZ
    dof ry
    limits (-180.0 0.0)
  end
  begin
     id 28
     name rhand
     direction -1 -4.49098e-011 5.13905e-028   
     length 0.637679   
     axis -3.27915e-016 -90 -90   XYZ
    dof rx rz
    limits (-90.0 90.0)
           (-45.0 45.0)
  end
  begin
     id 29
     name rfingers
     direction -1 -4.49026e-011 1.02781e-027   
     length 0.514113   
     axis -6.5583e-016 -90 -90   XYZ
    dof rx
    limits (0.0 90.0)
  end
  begin
     id 30
     name rthumb
     direction -0.707107 -6.3491e-011 0.707107   
     length 0.738167   
     axis -90 -45 -2.85299e-015   XYZ
    dof rx rz
    limits (-45.0 45.0)
           (-45.0 45.0)
  end
:hierarchy
  begin
    root lhipjoint rhipjoint lowerback
    lhipjoint lfemur
    lfemur ltibia
    ltibia lfoot
    lfoot ltoes
    rhipjoint rfemur
    rfemur rtibia
    rtibia rfoot
    rfoot rtoes
    lowerback upperback
    upperback thorax
    thorax lowerneck lclavicle rclavicle
    lowerneck upperneck
    upperneck head
    lclavicle lhumerus
    lhumerus lradius
    lradius lwrist
    lwrist lhand lthumb
    lhand lfingers
    rclavicle rhumerus
    rhumerus rradius
    rradius rwrist
    rwrist rhand rthumb
    rhand rfingers
  end

#!OML:ASF H:\Swim\Project 1\Capture day 1\Session 1\swimmer.ASF
:FULLY-SPECIFIED
:DEGREES
1863
root 5.79298 9.72502 14.6236 83.4809 0.106736 -1.85262
lowerback 1.92146 0.200043 -0.779129
upperback -10.5368 0.154252 -0.547388
thorax -12.416 0.121755 -0.179495
lowerneck -27.226 -7.21095 -7.99343
upperneck -11.0917 -7.20649 15.9061
head 1.76209 -2.85169 5.68344
rclavicle 3.77691e-015 -1.98785e-015
rhumerus 29.2369 55.5879 -31.1282
rradius 140.107
rwrist -33.1426
rhand -51.8279 6.85874
rfingers 7.12502
rthumb -24.3425 -21.6154
lclavicle 3.77691e-015 -1.98785e-015
lhumerus 34.0244 -52.4645 25.0714
lradius 138.755
lwrist 20.2562
lhand -48.6008 -325.896
lfingers 7.12502
lthumb -21.2456 422.96
rfemur -13.6811 8.51775 18.23
rtibia 36.477
rfoot -7.40855 -8.62124
rtoes -12.7056
lfemur -14.8534 -0.554549 -20.3427
ltibia 36.4835
lfoot 4.26816 4.00007
ltoes 8.56238
1864
root 5.79206 9.73665 14.6322 83.5425 0.102181 -1.86075
lowerback 1.60724 0.213633 -0.798468
upperback -10.6963 0.174181 -0.549772
thorax -12.4086 0.133919 -0.173403
lowerneck -27.2707 -7.24019 -8.05122
upperneck -11.1763 -7.21483 15.9494
head 1.74762 -2.85192 5.70733
rclavicle -3.77691e-015 8.15017e-015
rhumerus 29.3476 55.4764 -31.6848
rradius 140.509
rwrist -32.9039
rhand -52.1617 7.81366
rfingers 7.12502
rthumb -24.6625 -20.6171
lclavicle -3.77691e-015 8.15017e-015
lhumerus 33.984 -52.2693 25.9154
lradius 139.183
lwrist 19.9651
lhand -48.7661 -325.739
lfingers 7.12502
lthumb -21.4044 423.098
rfemur -13.3577 7.95573 18.1777
rtibia 36.5743
rfoot -7.25245 -8.38469
rtoes -12.6886
lfemur -14.6105 0.0234749 -20.3747
ltibia 36.6223
lfoot 4.58742 3.77889
ltoes 8.75606
1865
root 5.7916 9.74926 14.639 83.59 0.100294 -1.87057
lowerback 1.29807 0.227148 -0.813785
upperback -10.8477 0.194905 -0.547951
thorax -12.3951 0.146347 -0.164938
lowerneck -27.3272 -7.26464 -8.10563
upperneck -11.248 -7.21814 15.9807
head 1.73694 -2.84917 5.72711
rclavicle -1.98785e-015 2.18663e-015
rhumerus 29.4068 55.2537 -32.2855
rradius 140.884
rwrist -32.8074
rhand -52.4276 8.62837
rfingers 7.12502
rthumb -24.9173 -19.7673
lclavicle -1.98785e-015 2.18663e-015
lhumerus 33.8697 -52.0484 26.8356
lradius 139.576
lwrist 19.8946
lhand -49.0209 -326.021
lfingers 7.12502
lthumb -21.6491 422.788
rfemur -12.9892 7.38309 18.1174
rtibia 36.6822
rfoot -7.20081 -8.16238
rtoes -12.8151
lfemur -14.3363 0.582144 -20.3976
ltibia 36.7707
lfoot 4.9504 3.56741
ltoes 9.22022
1866
root 5.79153 9.76291 14.6437 83.6225 0.0999599 -1.88155
lowerback 0.997997 0.240011 -0.822711
upperback -10.9942 0.215428 -0.544104
thorax -12.3818 0.158164 -0.157709
lowerneck -27.3882 -7.28372 -8.15242
upperneck -11.3014 -7.21806 15.9987
head 1.73078 -2.84463 5.74143
rclavicle -1.78906e-015 -1.10325e-014
rhumerus 29.3909 54.9113 -32.9584
rradius 141.232
rwrist -32.8358
rhand -52.6143 9.23298
rfingers 7.12502
rthumb -25.0963 -19.1378
lclavicle -1.78906e-015 -1.10325e-014
lhumerus 33.668 -51.7911 27.8424
lradius 139.935
lwrist 20.013
lhand -49.2922 -326.623
lfingers 7.12502
lthumb -21.9096 422.156
rfemur -12.5756 6.79708 18.046
rtibia 36.8047
rfoot -7.24775 -7.94178
rtoes -13.0123
lfemur -14.0295 1.12276 -20.4136
ltibia 36.9314
lfoot 5.29206 3.38259
ltoes 9.66383
1867
root 5.79175 9.77766 14.6462 83.642 0.104594 -1.89196
lowerback 0.703331 0.250032 -0.820551
upperback -11.1348 0.232979 -0.53843
thorax -12.365 0.167467 -0.154192
lowerneck -27.4552 -7.29521 -8.1895
upperneck -11.3348 -7.2123 16.0068
head 1.72978 -2.837 5.75124
rclavicle 1.19271e-015 -1.78906e-015
rhumerus 29.2939 54.434 -33.7228
rradius 141.552
rwrist -32.9543
rhand -52.7119 9.53048
rfingers 7.12502
rthumb -25.1897 -18.8272
lclavicle 1.19271e-015 -1.78906e-015
lhumerus 33.3737 -51.4539 28.9515
lradius 140.261
lwrist 20.2401
lhand -49.4453 -327.245
lfingers 7.12502
lthumb -22.0567 421.517
rfemur -12.1211 6.19299 17.965
rtibia 36.947
rfoot -7.3849 -7.717
rtoes -13.3134
lfemur -13.6923 1.65214 -20.4183
ltibia 37.108
lfoot 5.58275 3.2434
ltoes 10.044
1868
root 5.79206 9.7936 14.6466 83.6481 0.112813 -1.90195
lowerback 0.415447 0.256687 -0.810147
upperback -11.2703 0.246612 -0.529646
thorax -12.3465 0.174144 -0.151347
lowerneck -27.5211 -7.30058 -8.22113
upperneck -11.3452 -7.2025 16.0077
head 1.73456 -2.82711 5.7579
rclavicle -9.93923e-016 2.78299e-015
rhumerus 29.1215 53.8135 -34.5823
rradius 141.837
rwrist -33.1304
rhand -52.7002 9.41386
rfingers 7.12502
rthumb -25.1785 -18.9454
lclavicle -9.93923e-016 2.78299e-015
lhumerus 32.9845 -51.0016 30.1795
lradius 140.537
lwrist 20.4749
lhand -49.3887 -327.645
lfingers 7.12502
lthumb -22.0023 421.123
rfemur -11.6281 5.56829 17.8717
rtibia 37.1153
rfoot -7.5407 -7.47479
rtoes -13.543
lfemur -13.3232 2.17929 -20.4116
ltibia 37.3028
lfoot 5.7874 3.15366
ltoes 10.1547
1869
root 5.79235 9.81091 14.6448 83.6412 0.121488 -1.91142
lowerback 0.135209 0.259631 -0.79328
upperback -11.4015 0.255392 -0.519898
thorax -12.3281 0.177757 -0.150453
lowerneck -27.58 -7.30084 -8.24907
upperneck -11.3308 -7.19018 16.0101
head 1.74583 -2.81563 5.76433
rclavicle -3.97569e-015 3.37934e-015
rhumerus 28.893 53.0686 -35.524
rradius 142.079
rwrist -33.3625
rhand -52.5853 8.92405
rfingers 7.12502
rthumb -25.0685 -19.4506
lclavicle -3.97569e-015 3.37934e-015
lhumerus 32.5418 -50.449 31.4829
lradius 140.747
lwrist 20.7028
lhand -49.1853 -327.802
lfingers 7.12502
lthumb -21.8069 420.989
rfemur -11.099 4.93399 17.7624
rtibia 37.3155
rfoot -7.76834 -7.26171
rtoes -14.054
lfemur -12.9226 2.71837 -20.3943
ltibia 37.5202
lfoot 5.91076 3.1024
ltoes 9.94545
1870
root 5.79254 9.82964 14.6413 83.6254 0.134102 -1.92024
lowerback -0.143364 0.258113 -0.76773
upperback -11.5279 0.258666 -0.506827
thorax -12.3051 0.177878 -0.150113
lowerneck -27.6333 -7.29548 -8.27604
upperneck -11.2854 -7.17443 16.0129
head 1.76558 -2.80177 5.77064
rclavicle -2.5842e-015 -7.35503e-015
rhumerus 28.6427 52.2161 -36.5199
rradius 142.272
rwrist -33.669
rhand -52.39 8.13156
rfingers 7.12502
rthumb -24.8813 -20.2691
lclavicle -2.5842e-015 -7.35503e-015
lhumerus 32.0842 -49.7943 32.8309
lradius 140.883
lwrist 20.9167
lhand -48.8516 -327.645
lfingers 7.12502
lthumb -21.4865 421.183
rfemur -10.5418 4.28944 17.6397
rtibia 37.5551
rfoot -7.95918 -7.06639
rtoes -14.4935
lfemur -12.4948 3.28563 -20.3598
ltibia 37.7646
lfoot 5.99392 3.06844
ltoes 9.54314
1871
root 5.79251 9.84994 14.636 83.5964 0.145651 -1.9304
lowerback -0.415077 0.253477 -0.74182
upperback -11.6493 0.257782 -0.489263
thorax -12.2806 0.17612 -0.144646
lowerneck -27.6885 -7.28492 -8.2957
upperneck -11.1897 -7.15932 16.0009
head 1.79981 -2.78744 5.77002
rclavicle 2.98177e-015 -1.68967e-015
rhumerus 28.3957 51.2876 -37.54
rradius 142.411
rwrist -34.0891
rhand -52.1279 7.18914
rfingers 7.12502
rthumb -24.6301 -21.246
lclavicle 2.98177e-015 -1.68967e-015
lhumerus 31.6615 -49.0992 34.1639
lradius 140.948
lwrist 21.2247
lhand -48.5428 -327.408
lfingers 7.12502
lthumb -21.1899 421.453
rfemur -9.95525 3.63242 17.4973
rtibia 37.8428
rfoot -8.16408 -6.91959
rtoes -15.1969
lfemur -12.0346 3.8905 -20.3098
ltibia 38.0422
lfoot 6.0522 3.04145
ltoes 8.96598
1872
root 5.79224 9.87204 14.6288 83.5535 0.146595 -1.93977
lowerback -0.673411 0.247235 -0.727535
upperback -11.7679 0.253901 -0.468821
thorax -12.2614 0.174236 -0.129357
lowerneck -27.7542 -7.27233 -8.31284
upperneck -11.0252 -7.14899 15.9732
head 1.85571 -2.77365 5.76215
rclavicle 7.95139e-016 4.96962e-016
rhumerus 28.1654 50.3153 -38.5582
rradius 142.498
rwrist -34.6784
rhand -51.8447 6.2879
rfingers 7.12502
rthumb -24.3586 -22.184
lclavicle 7.95139e-016 4.96962e-016
lhumerus 31.2837 -48.3703 35.4842
lradius 140.948
lwrist 21.6601
lhand -48.2552 -327.115
lfingers 7.12502
lthumb -20.9136 421.778
rfemur -9.34102 2.96379 17.3235
rtibia 38.1879
rfoot -8.38389 -6.82663
rtoes -16.0084
lfemur -11.5421 4.53454 -20.2534
ltibia 38.3613
lfoot 6.16165 3.01018
ltoes 8.54849
1873
root 5.79169 9.89601 14.6198 83.4908 0.134474 -1.94862
lowerback -0.912127 0.239724 -0.726509
upperback -11.8807 0.247207 -0.447801
thorax -12.2479 0.172349 -0.105883
lowerneck -27.8441 -7.25855 -8.32107
upperneck -10.7753 -7.1472 15.9226
head 1.93979 -2.76171 5.74292
rclavicle -4.77083e-015 -6.4605e-015
rhumerus 27.9505 49.2862 -39.5896
rradius 142.535
rwrist -35.4444
rhand -51.5338 5.39041
rfingers 7.12502
rthumb -24.0606 -23.1212
lclavicle -4.77083e-015 -6.4605e-015
lhumerus 30.9578 -47.6014 36.7865
lradius 140.893
lwrist 22.2869
lhand -47.9902 -326.826
lfingers 7.12502
lthumb -20.659 422.094
rfemur -8.69574 2.27537 17.1127
rtibia 38.5988
rfoot -8.61126 -6.77552
rtoes -16.9203
lfemur -11.0127 5.21932 -20.19
ltibia 38.7338
lfoot 6.3348 2.97228
ltoes 8.35635
1874
root 5.79094 9.9218 14.6089 83.4068 0.114419 -1.95577
lowerback -1.12917 0.231694 -0.728993
upperback -11.9875 0.239059 -0.429462
thorax -12.2408 0.169906 -0.0833372
lowerneck -27.9633 -7.24321 -8.31075
upperneck -10.4289 -7.15693 15.8427
head 2.05567 -2.7532 5.7082
rclavicle -3.18055e-015 -5.36719e-015
rhumerus 27.7459 48.1932 -40.6403
rradius 142.528
rwrist -36.4125
rhand -51.2098 4.54695
rfingers 7.12502
rthumb -23.7498 -24.0054
lclavicle -3.18055e-015 -5.36719e-015
lhumerus 30.6794 -46.7855 38.0741
lradius 140.792
lwrist 23.1291
lhand -47.7292 -326.578
lfingers 7.12502
lthumb -20.4082 422.369
rfemur -8.01906 1.56984 16.868
rtibia 39.0834
rfoot -8.82469 -6.75228
rtoes -17.7544
lfemur -10.4484 5.94056 -20.1123
ltibia 39.1728
lfoot 6.54483 2.92729
ltoes 8.20549
1875
root 5.79014 9.94943 14.5962 83.2982 0.101014 -1.95964
lowerback -1.31667 0.222746 -0.717223
upperback -12.087 0.229925 -0.4127
thorax -12.2433 0.165322 -0.0704854
lowerneck -28.1119 -7.22554 -8.29192
upperneck -9.98107 -7.1744 15.7405
head 2.20547 -2.74549 5.66247
rclavicle -2.98177e-015 4.96962e-016
rhumerus 27.5527 47.0281 -41.7138
rradius 142.478
rwrist -37.5797
rhand -50.8915 3.79129
rfingers 7.12502
rthumb -23.4446 -24.8004
lclavicle -2.98177e-015 4.96962e-016
lhumerus 30.4421 -45.9052 39.3558
lradius 140.649
lwrist 24.1859
lhand -47.4543 -326.39
lfingers 7.12502
lthumb -20.144 422.586
rfemur -7.30935 0.851263 16.6029
rtibia 39.6482
rfoot -9.0164 -6.74864
rtoes -18.443
lfemur -9.85142 6.69267 -20.0014
ltibia 39.6933
lfoot 6.79986 2.87236
ltoes 8.08042
1876
root 5.78932 9.97875 14.5818 83.1698 0.0850096 -1.95787
lowerback -1.48235 0.212057 -0.701578
upperback -12.1751 0.217883 -0.400115
thorax -12.2457 0.158538 -0.0641067
lowerneck -28.301 -7.20469 -8.26774
upperneck -9.42461 -7.19719 15.6189
head 2.39299 -2.73657 5.60759
rclavicle 3.77691e-015 5.36719e-015
rhumerus 27.3894 45.7606 -42.8051
rradius 142.378
rwrist -38.93
rhand -50.5731 3.09343
rfingers 7.12502
rthumb -23.1391 -25.5369
lclavicle 3.77691e-015 5.36719e-015
lhumerus 30.2577 -44.9415 40.6213
lradius 140.457
lwrist 25.4275
lhand -47.1536 -326.267
lfingers 7.12502
lthumb -19.8549 422.739
rfemur -6.5776 0.126219 16.3053
rtibia 40.3025
rfoot -9.15006 -6.75449
rtoes -18.8455
lfemur -9.23225 7.47016 -19.8661
ltibia 40.3065
lfoot 7.12536 2.79235
ltoes 8.02328
